<svg enable-background="new 0 0 512.001 512.001" viewBox="0 0 512.001 512.001" xmlns="http://www.w3.org/2000/svg"><path d="m511.999 87.804c0-.056-.007-.112-.009-.169-.006-.223-.019-.443-.045-.661-.01-.08-.025-.16-.037-.24-.03-.201-.067-.399-.113-.593-.018-.077-.038-.153-.059-.23-.058-.211-.124-.418-.2-.622-.014-.039-.023-.079-.038-.117l-20.345-52.082c-2.051-5.248-7.018-8.64-12.653-8.64h-37.044c-4.038 0-7.311 3.273-7.311 7.311s3.273 7.311 7.311 7.311h36.336l16.191 41.449h-153.074l-9.591-41.449h56.533c4.038 0 7.311-3.273 7.311-7.311s-3.273-7.311-7.311-7.311h-65.729-73.667-156.379c-5.636 0-10.602 3.392-12.653 8.642l-20.345 52.08c-.015.039-.023.079-.038.117-.076.203-.142.41-.2.622-.021.077-.041.153-.059.23-.046.195-.083.393-.113.593-.012.08-.027.16-.037.24-.025.218-.039.438-.045.661-.001.056-.008.112-.009.169 0 .009-.001.018-.001.027v107.41c0 4.038 3.273 7.311 7.311 7.311s7.311-3.273 7.311-7.311v-100.098h154.972v111.128c0 4.346 2.56 8.306 6.523 10.089 1.451.653 2.996.972 4.531.972 2.656 0 5.283-.954 7.343-2.78l38.721-34.304 38.721 34.303c3.251 2.883 7.913 3.592 11.876 1.809 3.962-1.784 6.522-5.743 6.522-10.089v-111.128h154.971v327.923c0 5.246-4.269 9.515-9.515 9.515h-134.053c0-.083-.01-.166-.011-.249-.008-.656-.032-1.311-.088-1.961 12.587 3.337 26.036-3.132 31.08-15.502 2.653-6.507 2.614-13.657-.111-20.133-.257-.61-.54-1.202-.838-1.785-.055-.107-.108-.215-.163-.321-.293-.556-.605-1.099-.934-1.628-.064-.103-.13-.203-.195-.305-.348-.543-.709-1.076-1.094-1.589-.007-.01-.015-.019-.022-.028-.382-.507-.786-.995-1.203-1.472-.076-.087-.151-.175-.228-.262-.413-.46-.842-.905-1.286-1.334-.087-.084-.175-.165-.263-.247-.465-.437-.941-.862-1.437-1.263-.017-.013-.034-.026-.051-.039-.488-.393-.995-.765-1.512-1.123-.093-.065-.185-.131-.28-.195-.517-.348-1.047-.677-1.591-.99-.045-.026-.086-.056-.132-.082 3.09-2.674 5.529-6.058 7.117-9.952 2.653-6.507 2.614-13.657-.111-20.134-2.384-5.667-6.575-10.225-11.943-13.053-.767-.404-1.558-.773-2.371-1.104l-113.787-46.397 52.966-16.394c12.601-3.901 19.698-17.341 15.82-29.958-1.447-4.71-4.316-8.682-8.022-11.585-5.515-4.321-12.886-6.272-20.196-4.737-.035.008-.069.014-.104.023-.405.091-41.009 9.221-83.416 17.49-1.881.367-3.714.721-5.521 1.069-1.446.278-2.872.552-4.271.818-.402.077-.805.153-1.204.229-2.47.469-4.863.918-7.189 1.35-.936.174-1.864.346-2.777.514-53.257 9.811-68.218 9.987-72.37 9.425-.016-.002-.03-.004-.046-.007-.063-.009-.125-.018-.183-.027-.042-.007-.081-.014-.12-.02-.028-.005-.058-.01-.085-.014-.259-.047-.461-.096-.617-.143l-1.198-.488 1.493-3.661c1.468-3.6 1.446-7.556-.061-11.139-.377-.896-.836-1.742-1.368-2.53-1.596-2.363-3.853-4.203-6.553-5.304l-39.268-16.011c-3.599-1.469-7.556-1.446-11.139.061-3.584 1.507-6.365 4.32-7.833 7.919l-48.017 117.763c-3.03 7.431.551 15.941 7.982 18.972l39.269 16.012c1.793.731 3.648 1.077 5.475 1.077 5.743 0 11.197-3.422 13.496-9.059l.361-.885 9.054 3.691c.005.002.01.005.016.007 8.66 3.531 16.639 8.569 23.545 14.821 1.256 1.137 2.476 2.314 3.659 3.529s2.327 2.469 3.432 3.759c.552.645 1.095 1.3 1.626 1.963 10.063 12.548 23.255 22.391 38.148 28.464l10.186 4.153h-74.612c-5.246 0-9.515-4.269-9.515-9.515v-18.499c0-4.038-3.273-7.311-7.311-7.311s-7.311 3.273-7.311 7.311v18.499c0 13.309 10.827 24.137 24.137 24.137h110.473l94.181 38.402c3.242 1.322 6.596 1.949 9.899 1.948 10.379 0 20.237-6.185 24.392-16.374 1.704-4.179 2.251-8.547 1.792-12.746 4.899.703 9.978.058 14.582-1.93 4.679-2.021 8.557-5.24 11.311-9.301h138.52c13.309 0 24.137-10.827 24.137-24.137v-335.232c-.001-.01-.002-.018-.002-.028zm-257.732-48.732h62.042l9.591 41.449h-81.224zm-24.599 41.449h-153.075l16.191-41.449h146.475zm98.119 117.841h-.001l-35.162-31.15c-2.091-1.852-4.713-2.778-7.334-2.778-2.622 0-5.245.926-7.336 2.778l-35.161 31.15v-103.219h84.994zm-274.002 169.132-39.143-15.96 47.966-117.635 39.143 15.961zm292.085 44.121-8.391-3.422c-.004-.002-.008-.003-.012-.005-.003-.001-.006-.003-.009-.004-.001 0-.002-.001-.003-.001l-87.386-35.631c-3.738-1.524-8.005.27-9.53 4.01-1.525 3.739.27 8.006 4.01 9.531l87.388 35.632c.365.149.718.314 1.059.495.096.051.185.113.279.166.24.136.481.272.708.423.109.073.209.157.315.233.201.144.406.286.596.442.115.094.219.199.33.297.17.151.344.297.504.457.111.11.21.231.316.345.147.158.298.313.436.479.105.127.197.262.297.393.125.164.255.325.37.495.097.142.18.292.27.437.104.168.214.333.309.506.086.156.158.319.237.478.084.171.175.339.251.514.073.168.132.342.197.513.066.173.138.343.196.519.058.177.102.358.151.537.049.177.104.351.145.53.041.181.067.365.1.547s.071.362.095.546.033.37.048.555c.015.186.037.371.043.557.006.183-.003.368-.005.552-.002.19.001.38-.011.571-.011.181-.038.362-.058.543-.021.195-.037.39-.069.584-.029.178-.074.355-.111.533-.042.197-.077.394-.13.59-.046.173-.108.345-.163.517-.062.196-.119.392-.192.585-.062.133-.123.267-.18.402-.013.031-.02.063-.032.093-1.142 2.637-3.25 4.732-6.003 5.921-3.03 1.307-6.499 1.353-9.519.121l-15.483-6.313c-.072-.029-.145-.049-.217-.076-.073-.033-.142-.071-.216-.101l-71.076-28.981c-3.741-1.524-8.006.27-9.53 4.01-1.525 3.739.27 8.006 4.009 9.531l71.076 28.981c.076.031.153.053.23.081.069.03.133.067.204.095 5.965 2.433 8.84 9.265 6.408 15.23-2.433 5.967-9.262 8.843-15.23 6.408l-95.495-38.938c-.004-.002-.008-.004-.012-.006l-44.72-18.235c-7.872-3.21-15.182-7.665-21.635-13.146-3.872-3.289-7.435-6.946-10.627-10.926-3.145-3.921-6.595-7.578-10.307-10.939-8.167-7.393-17.602-13.35-27.841-17.526-.001 0-.002-.001-.003-.001l-9.066-3.696 18.057-44.285 17.064-41.849 1.259.513c1.185.483 2.875 1.169 7.423 1.341 5.682.257 15.082-.336 31.922-2.715 11.455-1.618 25.506-3.958 41.909-6.976.404-.074.805-.148 1.213-.223.767-.142 1.542-.286 2.32-.43.605-.112 1.213-.226 1.826-.341.698-.131 1.399-.262 2.105-.395.749-.141 1.507-.284 2.269-.429.61-.116 1.219-.231 1.835-.348.929-.177 1.874-.358 2.822-.54.488-.094.971-.186 1.463-.28 1.452-.28 2.923-.564 4.421-.855 42.261-8.22 83.051-17.369 84.884-17.781.183-.038.366-.06.549-.087 4.696-.695 9.297 2.021 10.644 6.403.473 1.54.528 3.111.23 4.589-.655 3.253-3.019 6.06-6.398 7.105l-72.482 22.434c-2.951.914-5.009 3.581-5.142 6.667-.134 3.085 1.684 5.922 4.544 7.088l132.704 54.111c2.89 1.178 5.148 3.411 6.358 6.288s1.228 6.053.049 8.942c-1.179 2.89-3.411 5.148-6.288 6.358-1.438.604-2.951.91-4.466.919-.022 0-.044-.003-.066-.003-.356 0-.711-.014-1.066-.047-.105-.01-.209-.032-.314-.044-.271-.033-.542-.064-.811-.116-.17-.033-.338-.083-.507-.123-.202-.048-.405-.089-.605-.148-.207-.061-.41-.142-.614-.215-.162-.058-.327-.106-.487-.171l-87.396-35.636c-3.739-1.525-8.005.27-9.53 4.01-1.525 3.739.27 8.006 4.01 9.531l105.955 43.203c.723.294 1.406.655 2.043 1.075 1.911 1.26 3.408 3.055 4.315 5.213 1.059 2.517 1.205 5.263.435 7.846-.11.369-.239.735-.386 1.096-.152.373-.321.734-.506 1.082-.431.81-.956 1.542-1.542 2.209-.364.414-.753.8-1.167 1.154-.066.056-.126.12-.193.174-2.668 2.182-6.235 3.12-9.72 2.416-.707-.143-1.41-.346-2.102-.628z"/></svg>