<svg enable-background="new 0 0 456.556 456.556" viewBox="0 0 456.556 456.556" xmlns="http://www.w3.org/2000/svg"><path d="m228.278 456.556c-125.875 0-228.278-102.403-228.278-228.278s102.403-228.278 228.278-228.278c42.641 0 84.233 11.834 120.287 34.228 6.301 3.91 8.232 12.19 4.322 18.492-3.917 6.301-12.197 8.246-18.492 4.322-31.794-19.751-68.49-30.185-106.117-30.185-111.065 0-201.422 90.36-201.422 201.422s90.357 201.421 201.422 201.421c111.062 0 201.422-90.36 201.422-201.422 0-22.324-3.623-44.243-10.77-65.147-2.399-7.015 1.35-14.652 8.365-17.051 7.029-2.385 14.652 1.35 17.051 8.365 8.099 23.709 12.211 48.551 12.211 73.834-.001 125.874-102.404 228.277-228.279 228.277z"/><path d="m228.278 305.727c-3.406 0-6.7-1.294-9.193-3.644l-107.425-100.913c-5.406-5.077-5.672-13.575-.594-18.981 5.078-5.399 13.575-5.679 18.981-.587l97.092 91.206 176.425-209.437c4.77-5.672 13.246-6.399 18.918-1.616 5.672 4.777 6.399 13.246 1.616 18.918l-185.553 220.278c-2.371 2.818-5.805 4.539-9.484 4.756-.258.013-.524.02-.783.02z"/></svg>